<score-partwise version="3.1">
  <work>
    <work-title>beat</work-title>
    </work>
  <identification>
    <encoding>
      <software>MuseScore 3.0.5</software>
      <encoding-date>2019-03-16</encoding-date>
      <supports element="accidental" type="yes" />
      <supports element="beam" type="yes" />
      <supports attribute="new-page" element="print" type="yes" value="yes" />
      <supports attribute="new-system" element="print" type="yes" value="yes" />
      <supports element="stem" type="yes" />
      </encoding>
    </identification>
  <defaults>
    <scaling>
      <millimeters>7.05556</millimeters>
      <tenths>40</tenths>
      </scaling>
    <page-layout>
      <page-height>1683.36</page-height>
      <page-width>1190.88</page-width>
      <page-margins type="even">
        <left-margin>56.6929</left-margin>
        <right-margin>56.6929</right-margin>
        <top-margin>56.6929</top-margin>
        <bottom-margin>113.386</bottom-margin>
        </page-margins>
      <page-margins type="odd">
        <left-margin>56.6929</left-margin>
        <right-margin>56.6929</right-margin>
        <top-margin>56.6929</top-margin>
        <bottom-margin>113.386</bottom-margin>
        </page-margins>
      </page-layout>
    <word-font font-family="FreeSerif" font-size="10" />
    <lyric-font font-family="FreeSerif" font-size="11" />
    </defaults>
  <credit page="1">
    <credit-words default-x="595.44" default-y="1683.36" font-size="24" justify="center" valign="top">beat</credit-words>
    </credit>
  <part-list>
    <score-part id="P2">
      <part-name>Harmonica</part-name>
      <part-abbreviation>Harm.</part-abbreviation>
      <score-instrument id="P2-I1">
        <instrument-name>Harmonica</instrument-name>
        </score-instrument>
      <midi-device id="P2-I1" port="1" />
      <midi-instrument id="P2-I1">
        <midi-channel>9</midi-channel>
        <midi-program>23</midi-program>
        <volume>78.7402</volume>
        <pan>0</pan>
        </midi-instrument>
      </score-part></part-list>
  <part id="P2">
    <measure number="1" width="136.63">
      <direction placement="above">
        <direction-type>
          <metronome default-x="-30.12" parentheses="no" relative-y="20.00">
            <beat-unit>quarter</beat-unit>
            <per-minute>45.04596527068437</per-minute>
            </metronome>
          </direction-type>
        <staff>1</staff>
        <sound tempo="45.04596527068437" />
        </direction><print>
        <staff-layout number="1">
          <staff-distance>65.00</staff-distance>
          </staff-layout>
        </print>
      <attributes>
        <divisions>8</divisions>
        <key>
          <fifths>0</fifths>
          </key>
        <time>
          <beats>2</beats>
          <beat-type>4</beat-type>
          </time>
        <clef>
          <sign>G</sign>
          <line>2</line>
          </clef>
        </attributes>
      <note>
        <rest />
        <duration>16</duration>
        <voice>1</voice>
        </note>
      </measure>
    <measure number="2" width="54.31">
      <direction placement="above">
        <direction-type>
          <metronome default-x="-30.12" parentheses="no" relative-y="20.00">
            <beat-unit>quarter</beat-unit>
            <per-minute>80.18181818181824</per-minute>
            </metronome>
          </direction-type>
        <staff>1</staff>
        <sound tempo="80.18181818181824" />
        </direction><note>
        <rest />
        <duration>16</duration>
        <voice>1</voice>
        </note>
      </measure>
    <measure number="3" width="54.31">
      <direction placement="above">
        <direction-type>
          <metronome default-x="-30.12" parentheses="no" relative-y="20.00">
            <beat-unit>quarter</beat-unit>
            <per-minute>79.91543340380542</per-minute>
            </metronome>
          </direction-type>
        <staff>1</staff>
        <sound tempo="79.91543340380542" />
        </direction><note>
        <rest />
        <duration>16</duration>
        <voice>1</voice>
        </note>
      </measure>
    <measure number="4" width="54.31">
      <direction placement="above">
        <direction-type>
          <metronome default-x="-30.12" parentheses="no" relative-y="20.00">
            <beat-unit>quarter</beat-unit>
            <per-minute>79.65081276339548</per-minute>
            </metronome>
          </direction-type>
        <staff>1</staff>
        <sound tempo="79.65081276339548" />
        </direction><note>
        <rest />
        <duration>16</duration>
        <voice>1</voice>
        </note>
      </measure>
    <measure number="5" width="169.29">
      <direction placement="above">
        <direction-type>
          <metronome default-x="-30.12" parentheses="no" relative-y="20.00">
            <beat-unit>quarter</beat-unit>
            <per-minute>78.86736214605068</per-minute>
            </metronome>
          </direction-type>
        <staff>1</staff>
        <sound tempo="78.86736214605068" />
        </direction><note>
        <rest />
        <duration>8</duration>
        <voice>1</voice>
        <type>quarter</type>
        </note>
      <note>
        <rest />
        <duration>8</duration>
        <voice>1</voice>
        <type>quarter</type>
        </note>
      </measure>
    <measure number="6" width="80.59">
      <direction placement="above">
        <direction-type>
          <metronome default-x="-30.12" parentheses="no" relative-y="20.00">
            <beat-unit>quarter</beat-unit>
            <per-minute>79.12679425837325</per-minute>
            </metronome>
          </direction-type>
        <staff>1</staff>
        <sound tempo="79.12679425837325" />
        </direction><note>
        <rest />
        <duration>16</duration>
        <voice>1</voice>
        </note>
      </measure>
    <measure number="7" width="61.88">
      <direction placement="above">
        <direction-type>
          <metronome default-x="-30.12" parentheses="no" relative-y="20.00">
            <beat-unit>quarter</beat-unit>
            <per-minute>79.12679425837317</per-minute>
            </metronome>
          </direction-type>
        <staff>1</staff>
        <sound tempo="79.12679425837317" />
        </direction><note>
        <rest />
        <duration>16</duration>
        <voice>1</voice>
        </note>
      </measure>
    <measure number="8" width="169.29">
      <direction placement="above">
        <direction-type>
          <metronome default-x="-30.12" parentheses="no" relative-y="20.00">
            <beat-unit>quarter</beat-unit>
            <per-minute>79.12679425837335</per-minute>
            </metronome>
          </direction-type>
        <staff>1</staff>
        <sound tempo="79.12679425837335" />
        </direction><note>
        <rest />
        <duration>16</duration>
        <voice>1</voice>
        </note>
      </measure>
    <measure number="9" width="84.09">
      <direction placement="above">
        <direction-type>
          <metronome default-x="-30.12" parentheses="no" relative-y="20.00">
            <beat-unit>quarter</beat-unit>
            <per-minute>79.91543340380537</per-minute>
            </metronome>
          </direction-type>
        <staff>1</staff>
        <sound tempo="79.91543340380537" />
        </direction><note>
        <rest />
        <duration>16</duration>
        <voice>1</voice>
        </note>
      </measure>
    <measure number="10" width="158.51">
      <direction placement="above">
        <direction-type>
          <metronome default-x="-30.12" parentheses="no" relative-y="20.00">
            <beat-unit>quarter</beat-unit>
            <per-minute>79.91543340380557</per-minute>
            </metronome>
          </direction-type>
        <staff>1</staff>
        <sound tempo="79.91543340380557" />
        </direction><note>
        <rest />
        <duration>16</duration>
        <voice>1</voice>
        </note>
      </measure>
    <measure number="11" width="88.77">
      <direction placement="above">
        <direction-type>
          <metronome default-x="-30.12" parentheses="no" relative-y="20.00">
            <beat-unit>quarter</beat-unit>
            <per-minute>80.18181818181809</per-minute>
            </metronome>
          </direction-type>
        <staff>1</staff>
        <sound tempo="80.18181818181809" />
        </direction><note>
        <rest />
        <duration>16</duration>
        <voice>1</voice>
        </note>
      </measure>
    <measure number="12" width="140.87">
      <direction placement="above">
        <direction-type>
          <metronome default-x="-30.12" parentheses="no" relative-y="20.00">
            <beat-unit>quarter</beat-unit>
            <per-minute>79.91543340380575</per-minute>
            </metronome>
          </direction-type>
        <staff>1</staff>
        <sound tempo="79.91543340380575" />
        </direction><note>
        <rest />
        <duration>16</duration>
        <voice>1</voice>
        </note>
      </measure>
    <measure number="13" width="88.77">
      <direction placement="above">
        <direction-type>
          <metronome default-x="-30.12" parentheses="no" relative-y="20.00">
            <beat-unit>quarter</beat-unit>
            <per-minute>80.18181818181809</per-minute>
            </metronome>
          </direction-type>
        <staff>1</staff>
        <sound tempo="80.18181818181809" />
        </direction><note>
        <rest />
        <duration>16</duration>
        <voice>1</voice>
        </note>
      </measure>
    <measure number="14" width="140.87">
      <direction placement="above">
        <direction-type>
          <metronome default-x="-30.12" parentheses="no" relative-y="20.00">
            <beat-unit>quarter</beat-unit>
            <per-minute>79.91543340380557</per-minute>
            </metronome>
          </direction-type>
        <staff>1</staff>
        <sound tempo="79.91543340380557" />
        </direction><note>
        <rest />
        <duration>16</duration>
        <voice>1</voice>
        </note>
      </measure>
    <measure number="15" width="151.91">
      <direction placement="above">
        <direction-type>
          <metronome default-x="-30.12" parentheses="no" relative-y="20.00">
            <beat-unit>quarter</beat-unit>
            <per-minute>79.65081276339538</per-minute>
            </metronome>
          </direction-type>
        <staff>1</staff>
        <sound tempo="79.65081276339538" />
        </direction><note>
        <rest />
        <duration>16</duration>
        <voice>1</voice>
        </note>
      </measure>
    <measure number="16" width="233.81">
      <direction placement="above">
        <direction-type>
          <metronome default-x="-30.12" parentheses="no" relative-y="20.00">
            <beat-unit>quarter</beat-unit>
            <per-minute>80.44998479781084</per-minute>
            </metronome>
          </direction-type>
        <staff>1</staff>
        <sound tempo="80.44998479781084" />
        </direction><note>
        <rest />
        <duration>16</duration>
        <voice>1</voice>
        </note>
      </measure>
    <measure number="17" width="203.33">
      <direction placement="above">
        <direction-type>
          <metronome default-x="-30.12" parentheses="no" relative-y="20.00">
            <beat-unit>quarter</beat-unit>
            <per-minute>79.91543340380575</per-minute>
            </metronome>
          </direction-type>
        <staff>1</staff>
        <sound tempo="79.91543340380575" />
        </direction><note>
        <rest />
        <duration>16</duration>
        <voice>1</voice>
        </note>
      </measure>
    <measure number="18" width="178.79">
      <direction placement="above">
        <direction-type>
          <metronome default-x="-30.12" parentheses="no" relative-y="20.00">
            <beat-unit>quarter</beat-unit>
            <per-minute>80.18181818181809</per-minute>
            </metronome>
          </direction-type>
        <staff>1</staff>
        <sound tempo="80.18181818181809" />
        </direction><note>
        <rest />
        <duration>16</duration>
        <voice>1</voice>
        </note>
      </measure>
    <measure number="19" width="80.57">
      <direction placement="above">
        <direction-type>
          <metronome default-x="-30.12" parentheses="no" relative-y="20.00">
            <beat-unit>quarter</beat-unit>
            <per-minute>79.91543340380537</per-minute>
            </metronome>
          </direction-type>
        <staff>1</staff>
        <sound tempo="79.91543340380537" />
        </direction><note>
        <rest />
        <duration>16</duration>
        <voice>1</voice>
        </note>
      </measure>
    <measure number="20" width="62.53">
      <direction placement="above">
        <direction-type>
          <metronome default-x="-30.12" parentheses="no" relative-y="20.00">
            <beat-unit>quarter</beat-unit>
            <per-minute>79.65081276339576</per-minute>
            </metronome>
          </direction-type>
        <staff>1</staff>
        <sound tempo="79.65081276339576" />
        </direction><note>
        <rest />
        <duration>16</duration>
        <voice>1</voice>
        </note>
      </measure>
    <measure number="21" width="58.48">
      <direction placement="above">
        <direction-type>
          <metronome default-x="-30.12" parentheses="no" relative-y="20.00">
            <beat-unit>quarter</beat-unit>
            <per-minute>80.18181818181829</per-minute>
            </metronome>
          </direction-type>
        <staff>1</staff>
        <sound tempo="80.18181818181829" />
        </direction><note>
        <rest />
        <duration>16</duration>
        <voice>1</voice>
        </note>
      </measure>
    <measure number="22" width="58.48">
      <direction placement="above">
        <direction-type>
          <metronome default-x="-30.12" parentheses="no" relative-y="20.00">
            <beat-unit>quarter</beat-unit>
            <per-minute>80.18181818181847</per-minute>
            </metronome>
          </direction-type>
        <staff>1</staff>
        <sound tempo="80.18181818181847" />
        </direction><note>
        <rest />
        <duration>16</duration>
        <voice>1</voice>
        </note>
      </measure>
    <measure number="23" width="58.48">
      <direction placement="above">
        <direction-type>
          <metronome default-x="-30.12" parentheses="no" relative-y="20.00">
            <beat-unit>quarter</beat-unit>
            <per-minute>79.91543340380478</per-minute>
            </metronome>
          </direction-type>
        <staff>1</staff>
        <sound tempo="79.91543340380478" />
        </direction><note>
        <rest />
        <duration>16</duration>
        <voice>1</voice>
        </note>
      </measure>
    <measure number="24" width="249.68">
      <direction placement="above">
        <direction-type>
          <metronome default-x="-30.12" parentheses="no" relative-y="20.00">
            <beat-unit>quarter</beat-unit>
            <per-minute>120.27272727272772</per-minute>
            </metronome>
          </direction-type>
        <staff>1</staff>
        <sound tempo="120.27272727272772" />
        </direction><attributes>
        <time>
          <beats>3</beats>
          <beat-type>4</beat-type>
          </time>
        </attributes>
      <note>
        <rest />
        <duration>24</duration>
        <voice>1</voice>
        </note>
      </measure>
    <measure number="25" width="97.35">
      <direction placement="above">
        <direction-type>
          <metronome default-x="-30.12" parentheses="no" relative-y="20.00">
            <beat-unit>quarter</beat-unit>
            <per-minute>119.47621914509308</per-minute>
            </metronome>
          </direction-type>
        <staff>1</staff>
        <sound tempo="119.47621914509308" />
        </direction><note>
        <rest />
        <duration>24</duration>
        <voice>1</voice>
        </note>
      </measure>
    <measure number="26" width="178.58">
      <direction placement="above">
        <direction-type>
          <metronome default-x="-30.12" parentheses="no" relative-y="20.00">
            <beat-unit>quarter</beat-unit>
            <per-minute>120.27272727272715</per-minute>
            </metronome>
          </direction-type>
        <staff>1</staff>
        <sound tempo="120.27272727272715" />
        </direction><note>
        <rest />
        <duration>24</duration>
        <voice>1</voice>
        </note>
      </measure>
    <measure number="27" width="97.35">
      <direction placement="above">
        <direction-type>
          <metronome default-x="-30.12" parentheses="no" relative-y="20.00">
            <beat-unit>quarter</beat-unit>
            <per-minute>120.27272727272715</per-minute>
            </metronome>
          </direction-type>
        <staff>1</staff>
        <sound tempo="120.27272727272715" />
        </direction><note>
        <rest />
        <duration>24</duration>
        <voice>1</voice>
        </note>
      </measure>
    <measure number="28" width="187.14">
      <direction placement="above">
        <direction-type>
          <metronome default-x="-30.12" parentheses="no" relative-y="20.00">
            <beat-unit>quarter</beat-unit>
            <per-minute>119.87315010570833</per-minute>
            </metronome>
          </direction-type>
        <staff>1</staff>
        <sound tempo="119.87315010570833" />
        </direction><note>
        <rest />
        <duration>24</duration>
        <voice>1</voice>
        </note>
      </measure>
    <measure number="29" width="105.55">
      <direction placement="above">
        <direction-type>
          <metronome default-x="-30.12" parentheses="no" relative-y="20.00">
            <beat-unit>quarter</beat-unit>
            <per-minute>119.87315010570777</per-minute>
            </metronome>
          </direction-type>
        <staff>1</staff>
        <sound tempo="119.87315010570777" />
        </direction><note>
        <rest />
        <duration>24</duration>
        <voice>1</voice>
        </note>
      </measure>
    <measure number="30" width="208.49">
      <direction placement="above">
        <direction-type>
          <metronome default-x="-30.12" parentheses="no" relative-y="20.00">
            <beat-unit>quarter</beat-unit>
            <per-minute>119.87315010570833</per-minute>
            </metronome>
          </direction-type>
        <staff>1</staff>
        <sound tempo="119.87315010570833" />
        </direction><note>
        <rest />
        <duration>24</duration>
        <voice>1</voice>
        </note>
      </measure>
    <measure number="31" width="125.92">
      <direction placement="above">
        <direction-type>
          <metronome default-x="-30.12" parentheses="no" relative-y="20.00">
            <beat-unit>quarter</beat-unit>
            <per-minute>120.27272727272772</per-minute>
            </metronome>
          </direction-type>
        <staff>1</staff>
        <sound tempo="120.27272727272772" />
        </direction><note>
        <rest />
        <duration>24</duration>
        <voice>1</voice>
        </note>
      </measure>
    <measure number="32" width="229.24">
      <direction placement="above">
        <direction-type>
          <metronome default-x="-30.12" parentheses="no" relative-y="20.00">
            <beat-unit>quarter</beat-unit>
            <per-minute>120.27272727272772</per-minute>
            </metronome>
          </direction-type>
        <staff>1</staff>
        <sound tempo="120.27272727272772" />
        </direction><note>
        <rest />
        <duration>24</duration>
        <voice>1</voice>
        </note>
      </measure>
    <measure number="33" width="157.80">
      <direction placement="above">
        <direction-type>
          <metronome default-x="-30.12" parentheses="no" relative-y="20.00">
            <beat-unit>quarter</beat-unit>
            <per-minute>119.87315010570833</per-minute>
            </metronome>
          </direction-type>
        <staff>1</staff>
        <sound tempo="119.87315010570833" />
        </direction><note>
        <rest />
        <duration>24</duration>
        <voice>1</voice>
        </note>
      </measure>
    <measure number="34" width="217.57">
      <direction placement="above">
        <direction-type>
          <metronome default-x="-30.12" parentheses="no" relative-y="20.00">
            <beat-unit>quarter</beat-unit>
            <per-minute>119.87315010570833</per-minute>
            </metronome>
          </direction-type>
        <staff>1</staff>
        <sound tempo="119.87315010570833" />
        </direction><note>
        <rest />
        <duration>24</duration>
        <voice>1</voice>
        </note>
      </measure>
    <measure number="35" width="159.40">
      <direction placement="above">
        <direction-type>
          <metronome default-x="-30.12" parentheses="no" relative-y="20.00">
            <beat-unit>quarter</beat-unit>
            <per-minute>119.47621914509365</per-minute>
            </metronome>
          </direction-type>
        <staff>1</staff>
        <sound tempo="119.47621914509365" />
        </direction><note>
        <rest />
        <duration>24</duration>
        <voice>1</voice>
        </note>
      </measure>
    <measure number="36" width="210.28">
      <direction placement="above">
        <direction-type>
          <metronome default-x="-30.12" parentheses="no" relative-y="20.00">
            <beat-unit>quarter</beat-unit>
            <per-minute>120.67497719671594</per-minute>
            </metronome>
          </direction-type>
        <staff>1</staff>
        <sound tempo="120.67497719671594" />
        </direction><note>
        <rest />
        <duration>24</duration>
        <voice>1</voice>
        </note>
      </measure>
    <measure number="37" width="165.43">
      <direction placement="above">
        <direction-type>
          <metronome default-x="-30.12" parentheses="no" relative-y="20.00">
            <beat-unit>quarter</beat-unit>
            <per-minute>119.87315010570777</per-minute>
            </metronome>
          </direction-type>
        <staff>1</staff>
        <sound tempo="119.87315010570777" />
        </direction><note>
        <rest />
        <duration>24</duration>
        <voice>1</voice>
        </note>
      </measure>
    <measure number="38" width="100.47">
      <direction placement="above">
        <direction-type>
          <metronome default-x="-30.12" parentheses="no" relative-y="20.00">
            <beat-unit>quarter</beat-unit>
            <per-minute>120.27272727272715</per-minute>
            </metronome>
          </direction-type>
        <staff>1</staff>
        <sound tempo="120.27272727272715" />
        </direction><note>
        <rest />
        <duration>12</duration>
        <voice>1</voice>
        <type>quarter</type>
        <dot />
        </note>
      <note>
        <rest />
        <duration>4</duration>
        <voice>1</voice>
        <type>eighth</type>
        </note>
      <note>
        <rest />
        <duration>8</duration>
        <voice>1</voice>
        <type>quarter</type>
        </note>
      </measure>
    <measure number="39" width="90.54">
      <direction placement="above">
        <direction-type>
          <metronome default-x="-30.12" parentheses="no" relative-y="20.00">
            <beat-unit>quarter</beat-unit>
            <per-minute>119.87315010570893</per-minute>
            </metronome>
          </direction-type>
        <staff>1</staff>
        <sound tempo="119.87315010570893" />
        </direction><note>
        <rest />
        <duration>24</duration>
        <voice>1</voice>
        </note>
      </measure>
    <measure number="40" width="213.08">
      <direction placement="above">
        <direction-type>
          <metronome default-x="-30.12" parentheses="no" relative-y="20.00">
            <beat-unit>quarter</beat-unit>
            <per-minute>119.47621914509308</per-minute>
            </metronome>
          </direction-type>
        <staff>1</staff>
        <sound tempo="119.47621914509308" />
        </direction><note>
        <rest />
        <duration>24</duration>
        <voice>1</voice>
        </note>
      </measure>
    <measure number="41" width="211.68">
      <direction placement="above">
        <direction-type>
          <metronome default-x="-30.12" parentheses="no" relative-y="20.00">
            <beat-unit>quarter</beat-unit>
            <per-minute>120.67497719671655</per-minute>
            </metronome>
          </direction-type>
        <staff>1</staff>
        <sound tempo="120.67497719671655" />
        </direction><note>
        <rest />
        <duration>24</duration>
        <voice>1</voice>
        </note>
      </measure>
    <measure number="42" width="212.92">
      <direction placement="above">
        <direction-type>
          <metronome default-x="-30.12" parentheses="no" relative-y="20.00">
            <beat-unit>quarter</beat-unit>
            <per-minute>119.87315010570893</per-minute>
            </metronome>
          </direction-type>
        <staff>1</staff>
        <sound tempo="119.87315010570893" />
        </direction><note>
        <rest />
        <duration>24</duration>
        <voice>1</voice>
        </note>
      </measure>
    <measure number="43" width="144.94">
      <direction placement="above">
        <direction-type>
          <metronome default-x="-30.12" parentheses="no" relative-y="20.00">
            <beat-unit>quarter</beat-unit>
            <per-minute>119.87315010570777</per-minute>
            </metronome>
          </direction-type>
        <staff>1</staff>
        <sound tempo="119.87315010570777" />
        </direction><note>
        <rest />
        <duration>24</duration>
        <voice>1</voice>
        </note>
      </measure>
    <measure number="44" width="215.85">
      <direction placement="above">
        <direction-type>
          <metronome default-x="-30.12" parentheses="no" relative-y="20.00">
            <beat-unit>quarter</beat-unit>
            <per-minute>120.27272727272599</per-minute>
            </metronome>
          </direction-type>
        <staff>1</staff>
        <sound tempo="120.27272727272599" />
        </direction><note>
        <rest />
        <duration>24</duration>
        <voice>1</voice>
        </note>
      </measure>
    <measure number="45" width="222.37">
      <direction placement="above">
        <direction-type>
          <metronome default-x="-30.12" parentheses="no" relative-y="20.00">
            <beat-unit>quarter</beat-unit>
            <per-minute>119.47621914509365</per-minute>
            </metronome>
          </direction-type>
        <staff>1</staff>
        <sound tempo="119.47621914509365" />
        </direction><note>
        <rest />
        <duration>24</duration>
        <voice>1</voice>
        </note>
      </measure>
    <measure number="46" width="218.69">
      <direction placement="above">
        <direction-type>
          <metronome default-x="-30.12" parentheses="no" relative-y="20.00">
            <beat-unit>quarter</beat-unit>
            <per-minute>120.2727272727283</per-minute>
            </metronome>
          </direction-type>
        <staff>1</staff>
        <sound tempo="120.2727272727283" />
        </direction><note>
        <rest />
        <duration>24</duration>
        <voice>1</voice>
        </note>
      </measure>
    <measure number="47" width="139.49">
      <direction placement="above">
        <direction-type>
          <metronome default-x="-30.12" parentheses="no" relative-y="20.00">
            <beat-unit>quarter</beat-unit>
            <per-minute>120.27272727272599</per-minute>
            </metronome>
          </direction-type>
        <staff>1</staff>
        <sound tempo="120.27272727272599" />
        </direction><note>
        <rest />
        <duration>24</duration>
        <voice>1</voice>
        </note>
      </measure>
    <measure number="48" width="242.16">
      <direction placement="above">
        <direction-type>
          <metronome default-x="-30.12" parentheses="no" relative-y="20.00">
            <beat-unit>quarter</beat-unit>
            <per-minute>119.87315010570777</per-minute>
            </metronome>
          </direction-type>
        <staff>1</staff>
        <sound tempo="119.87315010570777" />
        </direction><note>
        <rest />
        <duration>24</duration>
        <voice>1</voice>
        </note>
      </measure>
    <measure number="49" width="251.24">
      <direction placement="above">
        <direction-type>
          <metronome default-x="-30.12" parentheses="no" relative-y="20.00">
            <beat-unit>quarter</beat-unit>
            <per-minute>120.2727272727283</per-minute>
            </metronome>
          </direction-type>
        <staff>1</staff>
        <sound tempo="120.2727272727283" />
        </direction><note>
        <rest />
        <duration>24</duration>
        <voice>1</voice>
        </note>
      </measure>
    <measure number="50" width="194.93">
      <direction placement="above">
        <direction-type>
          <metronome default-x="-30.12" parentheses="no" relative-y="20.00">
            <beat-unit>quarter</beat-unit>
            <per-minute>119.4762191450948</per-minute>
            </metronome>
          </direction-type>
        <staff>1</staff>
        <sound tempo="119.4762191450948" />
        </direction><note>
        <rest />
        <duration>24</duration>
        <voice>1</voice>
        </note>
      </measure>
    <measure number="51" width="121.93">
      <direction placement="above">
        <direction-type>
          <metronome default-x="-30.12" parentheses="no" relative-y="20.00">
            <beat-unit>quarter</beat-unit>
            <per-minute>120.27272727272599</per-minute>
            </metronome>
          </direction-type>
        <staff>1</staff>
        <sound tempo="120.27272727272599" />
        </direction><note>
        <rest />
        <duration>24</duration>
        <voice>1</voice>
        </note>
      </measure>
    <measure number="52" width="220.22">
      <direction placement="above">
        <direction-type>
          <metronome default-x="-30.12" parentheses="no" relative-y="20.00">
            <beat-unit>quarter</beat-unit>
            <per-minute>120.27272727272715</per-minute>
            </metronome>
          </direction-type>
        <staff>1</staff>
        <sound tempo="120.27272727272715" />
        </direction><note>
        <rest />
        <duration>24</duration>
        <voice>1</voice>
        </note>
      </measure>
    <measure number="53" width="157.48">
      <direction placement="above">
        <direction-type>
          <metronome default-x="-30.12" parentheses="no" relative-y="20.00">
            <beat-unit>quarter</beat-unit>
            <per-minute>119.87315010570777</per-minute>
            </metronome>
          </direction-type>
        <staff>1</staff>
        <sound tempo="119.87315010570777" />
        </direction><note>
        <rest />
        <duration>24</duration>
        <voice>1</voice>
        </note>
      </measure>
    <measure number="54" width="181.34">
      <direction placement="above">
        <direction-type>
          <metronome default-x="-30.12" parentheses="no" relative-y="20.00">
            <beat-unit>quarter</beat-unit>
            <per-minute>119.87315010570777</per-minute>
            </metronome>
          </direction-type>
        <staff>1</staff>
        <sound tempo="119.87315010570777" />
        </direction><note>
        <rest />
        <duration>24</duration>
        <voice>1</voice>
        </note>
      </measure>
    <measure number="55" width="89.74">
      <direction placement="above">
        <direction-type>
          <metronome default-x="-30.12" parentheses="no" relative-y="20.00">
            <beat-unit>quarter</beat-unit>
            <per-minute>119.87315010570893</per-minute>
            </metronome>
          </direction-type>
        <staff>1</staff>
        <sound tempo="119.87315010570893" />
        </direction><note>
        <rest />
        <duration>24</duration>
        <voice>1</voice>
        </note>
      </measure>
    <measure number="56" width="171.95">
      <direction placement="above">
        <direction-type>
          <metronome default-x="-30.12" parentheses="no" relative-y="20.00">
            <beat-unit>quarter</beat-unit>
            <per-minute>120.27272727272715</per-minute>
            </metronome>
          </direction-type>
        <staff>1</staff>
        <sound tempo="120.27272727272715" />
        </direction><note default-x="28.42" default-y="-110.00">
        <pitch>
          <step>E</step>
          <octave>5</octave>
          </pitch>
        <duration>6</duration>
        <voice>1</voice>
        <type>eighth</type>
        <dot />
        <stem>down</stem>
        <beam number="1">begin</beam>
        <lyric default-x="6.58" default-y="-70.00" number="1" relative-y="-11.47">
          <syllabic>single</syllabic>
          <text>&#21475;&#29748;</text>
          </lyric>
        </note>
      <note default-x="59.93" default-y="-115.00">
        <pitch>
          <step>D</step>
          <octave>5</octave>
          </pitch>
        <duration>3</duration>
        <voice>1</voice>
        <type>16th</type>
        <dot />
        <stem>down</stem>
        <beam number="1">continue</beam>
        <beam number="2">begin</beam>
        </note>
      <note default-x="83.63" default-y="-110.00">
        <pitch>
          <step>E</step>
          <octave>5</octave>
          </pitch>
        <duration>3</duration>
        <voice>1</voice>
        <type>16th</type>
        <dot />
        <stem>down</stem>
        <beam number="1">continue</beam>
        <beam number="2">end</beam>
        </note>
      <note default-x="107.32" default-y="-135.00">
        <pitch>
          <step>G</step>
          <octave>4</octave>
          </pitch>
        <duration>6</duration>
        <voice>1</voice>
        <type>eighth</type>
        <dot />
        <stem>down</stem>
        <beam number="1">end</beam>
        </note>
      <note>
        <rest />
        <duration>6</duration>
        <voice>1</voice>
        <type>eighth</type>
        <dot />
        </note>
      </measure>
    <measure number="57" width="159.15">
      <direction placement="above">
        <direction-type>
          <metronome default-x="-30.12" parentheses="no" relative-y="20.00">
            <beat-unit>quarter</beat-unit>
            <per-minute>119.87315010570893</per-minute>
            </metronome>
          </direction-type>
        <staff>1</staff>
        <sound tempo="119.87315010570893" />
        </direction><note default-x="15.62" default-y="-110.00">
        <pitch>
          <step>E</step>
          <octave>5</octave>
          </pitch>
        <duration>6</duration>
        <voice>1</voice>
        <type>eighth</type>
        <dot />
        <stem>down</stem>
        <beam number="1">begin</beam>
        </note>
      <note default-x="47.13" default-y="-115.00">
        <pitch>
          <step>D</step>
          <octave>5</octave>
          </pitch>
        <duration>3</duration>
        <voice>1</voice>
        <type>16th</type>
        <dot />
        <stem>down</stem>
        <beam number="1">continue</beam>
        <beam number="2">begin</beam>
        </note>
      <note default-x="70.83" default-y="-110.00">
        <pitch>
          <step>E</step>
          <octave>5</octave>
          </pitch>
        <duration>3</duration>
        <voice>1</voice>
        <type>16th</type>
        <dot />
        <stem>down</stem>
        <beam number="1">end</beam>
        <beam number="2">end</beam>
        </note>
      <note default-x="94.52" default-y="-110.00">
        <pitch>
          <step>E</step>
          <octave>5</octave>
          </pitch>
        <duration>12</duration>
        <voice>1</voice>
        <type>quarter</type>
        <dot />
        <stem>down</stem>
        </note>
      </measure>
    <measure number="58" width="117.83">
      <direction placement="above">
        <direction-type>
          <metronome default-x="-30.12" parentheses="no" relative-y="20.00">
            <beat-unit>quarter</beat-unit>
            <per-minute>120.2727272727283</per-minute>
            </metronome>
          </direction-type>
        <staff>1</staff>
        <sound tempo="120.2727272727283" />
        </direction><note default-x="15.62" default-y="-115.00">
        <pitch>
          <step>D</step>
          <octave>5</octave>
          </pitch>
        <duration>12</duration>
        <tie type="start" />
        <voice>1</voice>
        <type>quarter</type>
        <dot />
        <stem>down</stem>
        <notations>
          <tied type="start" />
          </notations>
        </note>
      <note default-x="50.62" default-y="-115.00">
        <pitch>
          <step>D</step>
          <octave>5</octave>
          </pitch>
        <duration>6</duration>
        <tie type="stop" />
        <voice>1</voice>
        <type>eighth</type>
        <dot />
        <stem>down</stem>
        <beam number="1">begin</beam>
        <notations>
          <tied type="stop" />
          </notations>
        </note>
      <note default-x="77.40" default-y="-115.00">
        <pitch>
          <step>D</step>
          <octave>5</octave>
          </pitch>
        <duration>2</duration>
        <voice>1</voice>
        <type>16th</type>
        <stem>down</stem>
        <beam number="1">continue</beam>
        <beam number="2">forward hook</beam>
        </note>
      <note default-x="93.06" default-y="-125.00">
        <pitch>
          <step>B</step>
          <octave>4</octave>
          </pitch>
        <duration>4</duration>
        <voice>1</voice>
        <type>eighth</type>
        <stem>down</stem>
        <beam number="1">end</beam>
        </note>
      </measure>
    <measure number="59" width="79.54">
      <direction placement="above">
        <direction-type>
          <metronome default-x="-30.12" parentheses="no" relative-y="20.00">
            <beat-unit>quarter</beat-unit>
            <per-minute>119.87315010570545</per-minute>
            </metronome>
          </direction-type>
        <staff>1</staff>
        <sound tempo="119.87315010570545" />
        </direction><note default-x="14.46" default-y="-130.00">
        <pitch>
          <step>A</step>
          <octave>4</octave>
          </pitch>
        <duration>24</duration>
        <voice>1</voice>
        <type>half</type>
        <dot />
        <stem>up</stem>
        </note>
      </measure>
    <measure number="60" width="159.15">
      <direction placement="above">
        <direction-type>
          <metronome default-x="-30.12" parentheses="no" relative-y="20.00">
            <beat-unit>quarter</beat-unit>
            <per-minute>119.47621914509365</per-minute>
            </metronome>
          </direction-type>
        <staff>1</staff>
        <sound tempo="119.47621914509365" />
        </direction><note default-x="15.62" default-y="-115.00">
        <pitch>
          <step>D</step>
          <octave>5</octave>
          </pitch>
        <duration>6</duration>
        <voice>1</voice>
        <type>eighth</type>
        <dot />
        <stem>down</stem>
        <beam number="1">begin</beam>
        </note>
      <note default-x="47.13" default-y="-110.00">
        <pitch>
          <step>E</step>
          <octave>5</octave>
          </pitch>
        <duration>3</duration>
        <voice>1</voice>
        <type>16th</type>
        <dot />
        <stem>down</stem>
        <beam number="1">continue</beam>
        <beam number="2">begin</beam>
        </note>
      <note default-x="70.83" default-y="-105.00">
        <pitch>
          <step>F</step>
          <octave>5</octave>
          </pitch>
        <duration>3</duration>
        <voice>1</voice>
        <type>16th</type>
        <dot />
        <stem>down</stem>
        <beam number="1">continue</beam>
        <beam number="2">end</beam>
        </note>
      <note default-x="94.52" default-y="-85.00">
        <pitch>
          <step>C</step>
          <octave>6</octave>
          </pitch>
        <duration>6</duration>
        <voice>1</voice>
        <type>eighth</type>
        <dot />
        <stem>down</stem>
        <beam number="1">end</beam>
        </note>
      <note>
        <rest />
        <duration>6</duration>
        <voice>1</voice>
        <type>eighth</type>
        <dot />
        </note>
      </measure>
    <measure number="61" width="188.78">
      <direction placement="above">
        <direction-type>
          <metronome default-x="-30.12" parentheses="no" relative-y="20.00">
            <beat-unit>quarter</beat-unit>
            <per-minute>120.6749771967189</per-minute>
            </metronome>
          </direction-type>
        <staff>1</staff>
        <sound tempo="120.6749771967189" />
        </direction><note default-x="18.42" default-y="-115.00">
        <pitch>
          <step>D</step>
          <octave>5</octave>
          </pitch>
        <duration>6</duration>
        <voice>1</voice>
        <type>eighth</type>
        <dot />
        <stem>down</stem>
        <beam number="1">begin</beam>
        </note>
      <note default-x="51.87" default-y="-110.00">
        <pitch>
          <step>E</step>
          <octave>5</octave>
          </pitch>
        <duration>3</duration>
        <voice>1</voice>
        <type>16th</type>
        <dot />
        <stem>down</stem>
        <beam number="1">continue</beam>
        <beam number="2">begin</beam>
        </note>
      <note default-x="90.98" default-y="-105.00">
        <pitch>
          <step>F</step>
          <alter>1</alter>
          <octave>5</octave>
          </pitch>
        <duration>3</duration>
        <voice>1</voice>
        <type>16th</type>
        <dot />
        <accidental>sharp</accidental>
        <stem>down</stem>
        <beam number="1">continue</beam>
        <beam number="2">end</beam>
        </note>
      <note default-x="114.68" default-y="-95.00">
        <pitch>
          <step>A</step>
          <octave>5</octave>
          </pitch>
        <duration>6</duration>
        <voice>1</voice>
        <type>eighth</type>
        <dot />
        <stem>down</stem>
        <beam number="1">continue</beam>
        </note>
      <note default-x="148.13" default-y="-105.00">
        <pitch>
          <step>F</step>
          <alter>1</alter>
          <octave>5</octave>
          </pitch>
        <duration>6</duration>
        <voice>1</voice>
        <type>eighth</type>
        <dot />
        <stem>down</stem>
        <beam number="1">end</beam>
        </note>
      <barline location="right">
        <bar-style>light-light</bar-style>
        </barline>
      </measure>
    <measure number="62" width="217.83">
      <direction placement="above">
        <direction-type>
          <metronome default-x="-30.12" parentheses="no" relative-y="20.00">
            <beat-unit>quarter</beat-unit>
            <per-minute>119.87315010570777</per-minute>
            </metronome>
          </direction-type>
        <staff>1</staff>
        <sound tempo="119.87315010570777" />
        </direction><attributes>
        <key>
          <fifths>1</fifths>
          </key>
        </attributes>
      <note default-x="29.82" default-y="-100.00">
        <pitch>
          <step>G</step>
          <octave>5</octave>
          </pitch>
        <duration>24</duration>
        <voice>1</voice>
        <type>half</type>
        <dot />
        <stem>down</stem>
        </note>
      </measure>
    <measure number="63" width="82.94">
      <direction placement="above">
        <direction-type>
          <metronome default-x="-30.12" parentheses="no" relative-y="20.00">
            <beat-unit>quarter</beat-unit>
            <per-minute>120.27272727272599</per-minute>
            </metronome>
          </direction-type>
        <staff>1</staff>
        <sound tempo="120.27272727272599" />
        </direction><note>
        <rest />
        <duration>24</duration>
        <voice>1</voice>
        </note>
      </measure>
    <measure number="64" width="169.83">
      <direction placement="above">
        <direction-type>
          <metronome default-x="-30.12" parentheses="no" relative-y="20.00">
            <beat-unit>quarter</beat-unit>
            <per-minute>119.87315010570893</per-minute>
            </metronome>
          </direction-type>
        <staff>1</staff>
        <sound tempo="119.87315010570893" />
        </direction><note>
        <rest />
        <duration>24</duration>
        <voice>1</voice>
        </note>
      </measure>
    <measure number="65" width="83.34">
      <direction placement="above">
        <direction-type>
          <metronome default-x="-30.12" parentheses="no" relative-y="20.00">
            <beat-unit>quarter</beat-unit>
            <per-minute>119.47621914509365</per-minute>
            </metronome>
          </direction-type>
        <staff>1</staff>
        <sound tempo="119.47621914509365" />
        </direction><note>
        <rest />
        <duration>24</duration>
        <voice>1</voice>
        </note>
      </measure>
    <measure number="66" width="202.50">
      <direction placement="above">
        <direction-type>
          <metronome default-x="-30.12" parentheses="no" relative-y="20.00">
            <beat-unit>quarter</beat-unit>
            <per-minute>120.27272727272599</per-minute>
            </metronome>
          </direction-type>
        <staff>1</staff>
        <sound tempo="120.27272727272599" />
        </direction><note>
        <rest />
        <duration>24</duration>
        <voice>1</voice>
        </note>
      </measure>
    <measure number="67" width="87.14">
      <direction placement="above">
        <direction-type>
          <metronome default-x="-30.12" parentheses="no" relative-y="20.00">
            <beat-unit>quarter</beat-unit>
            <per-minute>120.2727272727283</per-minute>
            </metronome>
          </direction-type>
        <staff>1</staff>
        <sound tempo="120.2727272727283" />
        </direction><note>
        <rest />
        <duration>24</duration>
        <voice>1</voice>
        </note>
      </measure>
    <measure number="68" width="227.94">
      <direction placement="above">
        <direction-type>
          <metronome default-x="-30.12" parentheses="no" relative-y="20.00">
            <beat-unit>quarter</beat-unit>
            <per-minute>119.87315010570777</per-minute>
            </metronome>
          </direction-type>
        <staff>1</staff>
        <sound tempo="119.87315010570777" />
        </direction><note>
        <rest />
        <duration>24</duration>
        <voice>1</voice>
        </note>
      </measure>
    <measure number="69" width="128.28">
      <direction placement="above">
        <direction-type>
          <metronome default-x="-30.12" parentheses="no" relative-y="20.00">
            <beat-unit>quarter</beat-unit>
            <per-minute>120.2727272727283</per-minute>
            </metronome>
          </direction-type>
        <staff>1</staff>
        <sound tempo="120.2727272727283" />
        </direction><note>
        <rest />
        <duration>24</duration>
        <voice>1</voice>
        </note>
      </measure>
    <measure number="70" width="262.02">
      <direction placement="above">
        <direction-type>
          <metronome default-x="-30.12" parentheses="no" relative-y="20.00">
            <beat-unit>quarter</beat-unit>
            <per-minute>119.47621914509133</per-minute>
            </metronome>
          </direction-type>
        <staff>1</staff>
        <sound tempo="119.47621914509133" />
        </direction><note>
        <rest />
        <duration>24</duration>
        <voice>1</voice>
        </note>
      </measure>
    <measure number="71" width="172.40">
      <direction placement="above">
        <direction-type>
          <metronome default-x="-30.12" parentheses="no" relative-y="20.00">
            <beat-unit>quarter</beat-unit>
            <per-minute>120.2727272727283</per-minute>
            </metronome>
          </direction-type>
        <staff>1</staff>
        <sound tempo="120.2727272727283" />
        </direction><note>
        <rest />
        <duration>24</duration>
        <voice>1</voice>
        </note>
      </measure>
    <measure number="72" width="213.89">
      <direction placement="above">
        <direction-type>
          <metronome default-x="-30.12" parentheses="no" relative-y="20.00">
            <beat-unit>quarter</beat-unit>
            <per-minute>120.2727272727283</per-minute>
            </metronome>
          </direction-type>
        <staff>1</staff>
        <sound tempo="120.2727272727283" />
        </direction><note>
        <rest />
        <duration>24</duration>
        <voice>1</voice>
        </note>
      </measure>
    <measure number="73" width="150.40">
      <direction placement="above">
        <direction-type>
          <metronome default-x="-30.12" parentheses="no" relative-y="20.00">
            <beat-unit>quarter</beat-unit>
            <per-minute>119.87315010570893</per-minute>
            </metronome>
          </direction-type>
        <staff>1</staff>
        <sound tempo="119.87315010570893" />
        </direction><note>
        <rest />
        <duration>24</duration>
        <voice>1</voice>
        </note>
      </measure>
    <measure number="74" width="203.31">
      <direction placement="above">
        <direction-type>
          <metronome default-x="-30.12" parentheses="no" relative-y="20.00">
            <beat-unit>quarter</beat-unit>
            <per-minute>119.87315010570661</per-minute>
            </metronome>
          </direction-type>
        <staff>1</staff>
        <sound tempo="119.87315010570661" />
        </direction><note>
        <rest />
        <duration>24</duration>
        <voice>1</voice>
        </note>
      </measure>
    <measure number="75" width="185.82">
      <direction placement="above">
        <direction-type>
          <metronome default-x="-30.12" parentheses="no" relative-y="20.00">
            <beat-unit>quarter</beat-unit>
            <per-minute>119.87315010570893</per-minute>
            </metronome>
          </direction-type>
        <staff>1</staff>
        <sound tempo="119.87315010570893" />
        </direction><note>
        <rest />
        <duration>24</duration>
        <voice>1</voice>
        </note>
      </measure>
    <measure number="76" width="117.12">
      <direction placement="above">
        <direction-type>
          <metronome default-x="-30.12" parentheses="no" relative-y="20.00">
            <beat-unit>quarter</beat-unit>
            <per-minute>120.2727272727283</per-minute>
            </metronome>
          </direction-type>
        <staff>1</staff>
        <sound tempo="120.2727272727283" />
        </direction><note>
        <rest />
        <duration>24</duration>
        <voice>1</voice>
        </note>
      </measure>
    <measure number="77" width="89.13">
      <direction placement="above">
        <direction-type>
          <metronome default-x="-30.12" parentheses="no" relative-y="20.00">
            <beat-unit>quarter</beat-unit>
            <per-minute>119.87315010570777</per-minute>
            </metronome>
          </direction-type>
        <staff>1</staff>
        <sound tempo="119.87315010570777" />
        </direction><note>
        <rest />
        <duration>24</duration>
        <voice>1</voice>
        </note>
      </measure>
    <measure number="78" width="256.76">
      <direction placement="above">
        <direction-type>
          <metronome default-x="-30.12" parentheses="no" relative-y="20.00">
            <beat-unit>quarter</beat-unit>
            <per-minute>120.27272727272599</per-minute>
            </metronome>
          </direction-type>
        <staff>1</staff>
        <sound tempo="120.27272727272599" />
        </direction><note>
        <rest />
        <duration>24</duration>
        <voice>1</voice>
        </note>
      </measure>
    <measure number="79" width="220.67">
      <direction placement="above">
        <direction-type>
          <metronome default-x="-30.12" parentheses="no" relative-y="20.00">
            <beat-unit>quarter</beat-unit>
            <per-minute>121.07992678462652</per-minute>
            </metronome>
          </direction-type>
        <staff>1</staff>
        <sound tempo="121.07992678462652" />
        </direction><note>
        <rest />
        <duration>24</duration>
        <voice>1</voice>
        </note>
      </measure>
    <measure number="80" width="213.56">
      <direction placement="above">
        <direction-type>
          <metronome default-x="-30.12" parentheses="no" relative-y="20.00">
            <beat-unit>quarter</beat-unit>
            <per-minute>121.07992678462652</per-minute>
            </metronome>
          </direction-type>
        <staff>1</staff>
        <sound tempo="121.07992678462652" />
        </direction><note>
        <rest />
        <duration>24</duration>
        <voice>1</voice>
        </note>
      </measure>
    <measure number="81" width="103.94">
      <direction placement="above">
        <direction-type>
          <metronome default-x="-30.12" parentheses="no" relative-y="20.00">
            <beat-unit>quarter</beat-unit>
            <per-minute>121.07992678462652</per-minute>
            </metronome>
          </direction-type>
        <staff>1</staff>
        <sound tempo="121.07992678462652" />
        </direction><note>
        <rest />
        <duration>24</duration>
        <voice>1</voice>
        </note>
      </measure>
    <measure number="82" width="223.36">
      <direction placement="above">
        <direction-type>
          <metronome default-x="-30.12" parentheses="no" relative-y="20.00">
            <beat-unit>quarter</beat-unit>
            <per-minute>121.07992678462652</per-minute>
            </metronome>
          </direction-type>
        <staff>1</staff>
        <sound tempo="121.07992678462652" />
        </direction><note>
        <rest />
        <duration>24</duration>
        <voice>1</voice>
        </note>
      </measure>
    <measure number="83" width="196.65">
      <direction placement="above">
        <direction-type>
          <metronome default-x="-30.12" parentheses="no" relative-y="20.00">
            <beat-unit>quarter</beat-unit>
            <per-minute>121.07992678462652</per-minute>
            </metronome>
          </direction-type>
        <staff>1</staff>
        <sound tempo="121.07992678462652" />
        </direction><note>
        <rest />
        <duration>24</duration>
        <voice>1</voice>
        </note>
      </measure>
    <measure number="84" width="272.44">
      <direction placement="above">
        <direction-type>
          <metronome default-x="-30.12" parentheses="no" relative-y="20.00">
            <beat-unit>quarter</beat-unit>
            <per-minute>121.07992678462652</per-minute>
            </metronome>
          </direction-type>
        <staff>1</staff>
        <sound tempo="121.07992678462652" />
        </direction><note>
        <rest />
        <duration>24</duration>
        <voice>1</voice>
        </note>
      </measure>
    <measure number="85" width="129.46">
      <direction placement="above">
        <direction-type>
          <metronome default-x="-30.12" parentheses="no" relative-y="20.00">
            <beat-unit>quarter</beat-unit>
            <per-minute>121.07992678462652</per-minute>
            </metronome>
          </direction-type>
        <staff>1</staff>
        <sound tempo="121.07992678462652" />
        </direction><note>
        <rest />
        <duration>24</duration>
        <voice>1</voice>
        </note>
      </measure>
    <measure number="86" width="248.83">
      <direction placement="above">
        <direction-type>
          <metronome default-x="-30.12" parentheses="no" relative-y="20.00">
            <beat-unit>quarter</beat-unit>
            <per-minute>121.07992678462652</per-minute>
            </metronome>
          </direction-type>
        <staff>1</staff>
        <sound tempo="121.07992678462652" />
        </direction><note>
        <rest />
        <duration>24</duration>
        <voice>1</voice>
        </note>
      </measure>
    <measure number="87" width="232.86">
      <direction placement="above">
        <direction-type>
          <metronome default-x="-30.12" parentheses="no" relative-y="20.00">
            <beat-unit>quarter</beat-unit>
            <per-minute>121.07992678462772</per-minute>
            </metronome>
          </direction-type>
        <staff>1</staff>
        <sound tempo="121.07992678462772" />
        </direction><note>
        <rest />
        <duration>24</duration>
        <voice>1</voice>
        </note>
      </measure>
    <measure number="88" width="191.25">
      <direction placement="above">
        <direction-type>
          <metronome default-x="-30.12" parentheses="no" relative-y="20.00">
            <beat-unit>quarter</beat-unit>
            <per-minute>121.07992678462652</per-minute>
            </metronome>
          </direction-type>
        <staff>1</staff>
        <sound tempo="121.07992678462652" />
        </direction><note>
        <rest />
        <duration>24</duration>
        <voice>1</voice>
        </note>
      </measure>
    <measure number="89" width="134.17">
      <direction placement="above">
        <direction-type>
          <metronome default-x="-30.12" parentheses="no" relative-y="20.00">
            <beat-unit>quarter</beat-unit>
            <per-minute>121.07992678462652</per-minute>
            </metronome>
          </direction-type>
        <staff>1</staff>
        <sound tempo="121.07992678462652" />
        </direction><note>
        <rest />
        <duration>24</duration>
        <voice>1</voice>
        </note>
      </measure>
    <measure number="90" width="223.49">
      <direction placement="above">
        <direction-type>
          <metronome default-x="-30.12" parentheses="no" relative-y="20.00">
            <beat-unit>quarter</beat-unit>
            <per-minute>121.07992678462652</per-minute>
            </metronome>
          </direction-type>
        <staff>1</staff>
        <sound tempo="121.07992678462652" />
        </direction><note>
        <rest />
        <duration>24</duration>
        <voice>1</voice>
        </note>
      </measure>
    <measure number="91" width="159.06">
      <direction placement="above">
        <direction-type>
          <metronome default-x="-30.12" parentheses="no" relative-y="20.00">
            <beat-unit>quarter</beat-unit>
            <per-minute>121.07992678462652</per-minute>
            </metronome>
          </direction-type>
        <staff>1</staff>
        <sound tempo="121.07992678462652" />
        </direction><note>
        <rest />
        <duration>24</duration>
        <voice>1</voice>
        </note>
      </measure>
    <measure number="92" width="212.16">
      <direction placement="above">
        <direction-type>
          <metronome default-x="-30.12" parentheses="no" relative-y="20.00">
            <beat-unit>quarter</beat-unit>
            <per-minute>121.07992678462652</per-minute>
            </metronome>
          </direction-type>
        <staff>1</staff>
        <sound tempo="121.07992678462652" />
        </direction><note>
        <rest />
        <duration>24</duration>
        <voice>1</voice>
        </note>
      </measure>
    <measure number="93" width="86.54">
      <direction placement="above">
        <direction-type>
          <metronome default-x="-30.12" parentheses="no" relative-y="20.00">
            <beat-unit>quarter</beat-unit>
            <per-minute>121.07992678462652</per-minute>
            </metronome>
          </direction-type>
        <staff>1</staff>
        <sound tempo="121.07992678462652" />
        </direction><note>
        <rest />
        <duration>24</duration>
        <voice>1</voice>
        </note>
      </measure>
    <measure number="94" width="284.56">
      <direction placement="above">
        <direction-type>
          <metronome default-x="-30.12" parentheses="no" relative-y="20.00">
            <beat-unit>quarter</beat-unit>
            <per-minute>121.07992678462652</per-minute>
            </metronome>
          </direction-type>
        <staff>1</staff>
        <sound tempo="121.07992678462652" />
        </direction><note default-x="49.86" default-y="-90.00">
        <pitch>
          <step>B</step>
          <octave>5</octave>
          </pitch>
        <duration>24</duration>
        <tie type="start" />
        <voice>1</voice>
        <type>half</type>
        <dot />
        <stem>down</stem>
        <notations>
          <tied type="start" />
          </notations>
        <lyric default-x="6.94" default-y="-70.00" number="1" relative-y="-11.47">
          <syllabic>single</syllabic>
          <text>&#21475;&#29748;&#38283;&#22987;</text>
          </lyric>
        </note>
      </measure>
    <measure number="95" width="224.75">
      <direction placement="above">
        <direction-type>
          <metronome default-x="-30.12" parentheses="no" relative-y="20.00">
            <beat-unit>quarter</beat-unit>
            <per-minute>121.07992678462652</per-minute>
            </metronome>
          </direction-type>
        <staff>1</staff>
        <sound tempo="121.07992678462652" />
        </direction><note default-x="20.86" default-y="-90.00">
        <pitch>
          <step>B</step>
          <octave>5</octave>
          </pitch>
        <duration>16</duration>
        <tie type="stop" />
        <voice>1</voice>
        <type>half</type>
        <stem>down</stem>
        <notations>
          <tied type="stop" />
          </notations>
        </note>
      <note default-x="166.28" default-y="-90.00">
        <pitch>
          <step>B</step>
          <octave>5</octave>
          </pitch>
        <duration>4</duration>
        <voice>1</voice>
        <type>eighth</type>
        <stem>down</stem>
        <beam number="1">begin</beam>
        </note>
      <note default-x="194.72" default-y="-80.00">
        <pitch>
          <step>D</step>
          <octave>6</octave>
          </pitch>
        <duration>4</duration>
        <voice>1</voice>
        <type>eighth</type>
        <stem>down</stem>
        <beam number="1">end</beam>
        </note>
      </measure>
    <measure number="96" width="220.46">
      <direction placement="above">
        <direction-type>
          <metronome default-x="-30.12" parentheses="no" relative-y="20.00">
            <beat-unit>quarter</beat-unit>
            <per-minute>121.07992678462652</per-minute>
            </metronome>
          </direction-type>
        <staff>1</staff>
        <sound tempo="121.07992678462652" />
        </direction><note default-x="29.02" default-y="-75.00">
        <pitch>
          <step>E</step>
          <octave>6</octave>
          </pitch>
        <duration>12</duration>
        <voice>1</voice>
        <type>quarter</type>
        <dot />
        <stem>down</stem>
        </note>
      <note default-x="124.23" default-y="-80.00">
        <pitch>
          <step>D</step>
          <octave>6</octave>
          </pitch>
        <duration>12</duration>
        <voice>1</voice>
        <type>quarter</type>
        <dot />
        <stem>down</stem>
        </note>
      </measure>
    <measure number="97" width="141.44">
      <direction placement="above">
        <direction-type>
          <metronome default-x="-30.12" parentheses="no" relative-y="20.00">
            <beat-unit>quarter</beat-unit>
            <per-minute>121.07992678462652</per-minute>
            </metronome>
          </direction-type>
        <staff>1</staff>
        <sound tempo="121.07992678462652" />
        </direction><note default-x="25.82" default-y="-90.00">
        <pitch>
          <step>B</step>
          <octave>5</octave>
          </pitch>
        <duration>12</duration>
        <voice>1</voice>
        <type>quarter</type>
        <dot />
        <stem>down</stem>
        </note>
      <note>
        <rest />
        <duration>6</duration>
        <voice>1</voice>
        <type>eighth</type>
        <dot />
        </note>
      <note default-x="108.16" default-y="-95.00">
        <pitch>
          <step>A</step>
          <octave>5</octave>
          </pitch>
        <duration>6</duration>
        <voice>1</voice>
        <type>eighth</type>
        <dot />
        <stem>down</stem>
        </note>
      </measure>
    <measure number="98" width="226.81">
      <direction placement="above">
        <direction-type>
          <metronome default-x="-30.12" parentheses="no" relative-y="20.00">
            <beat-unit>quarter</beat-unit>
            <per-minute>121.07992678462652</per-minute>
            </metronome>
          </direction-type>
        <staff>1</staff>
        <sound tempo="121.07992678462652" />
        </direction><note default-x="26.46" default-y="-100.00">
        <pitch>
          <step>G</step>
          <octave>5</octave>
          </pitch>
        <duration>24</duration>
        <tie type="start" />
        <voice>1</voice>
        <type>half</type>
        <dot />
        <stem>down</stem>
        <notations>
          <tied type="start" />
          </notations>
        </note>
      </measure>
    <measure number="99" width="219.63">
      <direction placement="above">
        <direction-type>
          <metronome default-x="-30.12" parentheses="no" relative-y="20.00">
            <beat-unit>quarter</beat-unit>
            <per-minute>121.07992678462652</per-minute>
            </metronome>
          </direction-type>
        <staff>1</staff>
        <sound tempo="121.07992678462652" />
        </direction><note default-x="28.06" default-y="-100.00">
        <pitch>
          <step>G</step>
          <octave>5</octave>
          </pitch>
        <duration>24</duration>
        <tie type="stop" />
        <voice>1</voice>
        <type>half</type>
        <dot />
        <stem>down</stem>
        <notations>
          <tied type="stop" />
          </notations>
        </note>
      </measure>
    <measure number="100" width="272.44">
      <direction placement="above">
        <direction-type>
          <metronome default-x="-30.12" parentheses="no" relative-y="20.00">
            <beat-unit>quarter</beat-unit>
            <per-minute>121.07992678462652</per-minute>
            </metronome>
          </direction-type>
        <staff>1</staff>
        <sound tempo="121.07992678462652" />
        </direction><note default-x="24.42" default-y="-90.00">
        <pitch>
          <step>B</step>
          <octave>5</octave>
          </pitch>
        <duration>6</duration>
        <voice>1</voice>
        <type>eighth</type>
        <dot />
        <stem>down</stem>
        <beam number="1">begin</beam>
        </note>
      <note default-x="85.46" default-y="-95.00">
        <pitch>
          <step>A</step>
          <octave>5</octave>
          </pitch>
        <duration>6</duration>
        <voice>1</voice>
        <type>eighth</type>
        <dot />
        <stem>down</stem>
        <beam number="1">continue</beam>
        </note>
      <note default-x="148.76" default-y="-95.00">
        <pitch>
          <step>A</step>
          <octave>5</octave>
          </pitch>
        <duration>6</duration>
        <voice>1</voice>
        <type>eighth</type>
        <dot />
        <stem>down</stem>
        <beam number="1">continue</beam>
        </note>
      <note default-x="209.80" default-y="-100.00">
        <pitch>
          <step>G</step>
          <octave>5</octave>
          </pitch>
        <duration>6</duration>
        <voice>1</voice>
        <type>eighth</type>
        <dot />
        <stem>down</stem>
        <beam number="1">end</beam>
        </note>
      </measure>
    <measure number="101" width="148.23">
      <direction placement="above">
        <direction-type>
          <metronome default-x="-30.12" parentheses="no" relative-y="20.00">
            <beat-unit>quarter</beat-unit>
            <per-minute>121.07992678462652</per-minute>
            </metronome>
          </direction-type>
        <staff>1</staff>
        <sound tempo="121.07992678462652" />
        </direction><note default-x="23.82" default-y="-100.00">
        <pitch>
          <step>G</step>
          <octave>5</octave>
          </pitch>
        <duration>12</duration>
        <voice>1</voice>
        <type>quarter</type>
        <dot />
        <stem>down</stem>
        </note>
      <note default-x="72.21" default-y="-95.00">
        <pitch>
          <step>A</step>
          <octave>5</octave>
          </pitch>
        <duration>12</duration>
        <voice>1</voice>
        <type>quarter</type>
        <dot />
        <stem>down</stem>
        </note>
      </measure>
    <measure number="102" width="224.45">
      <direction placement="above">
        <direction-type>
          <metronome default-x="-30.12" parentheses="no" relative-y="20.00">
            <beat-unit>quarter</beat-unit>
            <per-minute>121.07992678462652</per-minute>
            </metronome>
          </direction-type>
        <staff>1</staff>
        <sound tempo="121.07992678462652" />
        </direction><note default-x="26.86" default-y="-90.00">
        <pitch>
          <step>B</step>
          <octave>5</octave>
          </pitch>
        <duration>24</duration>
        <tie type="start" />
        <voice>1</voice>
        <type>half</type>
        <dot />
        <stem>down</stem>
        <notations>
          <tied type="start" />
          </notations>
        </note>
      </measure>
    <measure number="103" width="264.54">
      <direction placement="above">
        <direction-type>
          <metronome default-x="-30.12" parentheses="no" relative-y="20.00">
            <beat-unit>quarter</beat-unit>
            <per-minute>121.07992678462652</per-minute>
            </metronome>
          </direction-type>
        <staff>1</staff>
        <sound tempo="121.07992678462652" />
        </direction><note default-x="25.46" default-y="-90.00">
        <pitch>
          <step>B</step>
          <octave>5</octave>
          </pitch>
        <duration>16</duration>
        <tie type="stop" />
        <voice>1</voice>
        <type>half</type>
        <stem>down</stem>
        <notations>
          <tied type="stop" />
          </notations>
        </note>
      <note default-x="200.93" default-y="-90.00">
        <pitch>
          <step>B</step>
          <octave>5</octave>
          </pitch>
        <duration>4</duration>
        <voice>1</voice>
        <type>eighth</type>
        <stem>down</stem>
        <beam number="1">begin</beam>
        </note>
      <note default-x="231.93" default-y="-80.00">
        <pitch>
          <step>D</step>
          <octave>6</octave>
          </pitch>
        <duration>4</duration>
        <voice>1</voice>
        <type>eighth</type>
        <stem>down</stem>
        <beam number="1">end</beam>
        </note>
      </measure>
    <measure number="104" width="194.93">
      <direction placement="above">
        <direction-type>
          <metronome default-x="-30.12" parentheses="no" relative-y="20.00">
            <beat-unit>quarter</beat-unit>
            <per-minute>121.07992678462652</per-minute>
            </metronome>
          </direction-type>
        <staff>1</staff>
        <sound tempo="121.07992678462652" />
        </direction><note default-x="18.42" default-y="-75.00">
        <pitch>
          <step>E</step>
          <octave>6</octave>
          </pitch>
        <duration>12</duration>
        <voice>1</voice>
        <type>quarter</type>
        <dot />
        <stem>down</stem>
        </note>
      <note default-x="107.32" default-y="-80.00">
        <pitch>
          <step>D</step>
          <octave>6</octave>
          </pitch>
        <duration>12</duration>
        <voice>1</voice>
        <type>quarter</type>
        <dot />
        <stem>down</stem>
        </note>
      </measure>
    <measure number="105" width="140.69">
      <direction placement="above">
        <direction-type>
          <metronome default-x="-30.12" parentheses="no" relative-y="20.00">
            <beat-unit>quarter</beat-unit>
            <per-minute>121.07992678462652</per-minute>
            </metronome>
          </direction-type>
        <staff>1</staff>
        <sound tempo="121.07992678462652" />
        </direction><note default-x="21.62" default-y="-90.00">
        <pitch>
          <step>B</step>
          <octave>5</octave>
          </pitch>
        <duration>12</duration>
        <voice>1</voice>
        <type>quarter</type>
        <dot />
        <stem>down</stem>
        </note>
      <note>
        <rest />
        <duration>6</duration>
        <voice>1</voice>
        <type>eighth</type>
        <dot />
        </note>
      <note default-x="106.46" default-y="-95.00">
        <pitch>
          <step>A</step>
          <octave>5</octave>
          </pitch>
        <duration>6</duration>
        <voice>1</voice>
        <type>eighth</type>
        <dot />
        <stem>down</stem>
        </note>
      </measure>
    <measure number="106" width="217.63">
      <direction placement="above">
        <direction-type>
          <metronome default-x="-30.12" parentheses="no" relative-y="20.00">
            <beat-unit>quarter</beat-unit>
            <per-minute>121.07992678462652</per-minute>
            </metronome>
          </direction-type>
        <staff>1</staff>
        <sound tempo="121.07992678462652" />
        </direction><note default-x="24.06" default-y="-100.00">
        <pitch>
          <step>G</step>
          <octave>5</octave>
          </pitch>
        <duration>24</duration>
        <tie type="start" />
        <voice>1</voice>
        <type>half</type>
        <dot />
        <stem>down</stem>
        <notations>
          <tied type="start" />
          </notations>
        </note>
      </measure>
    <measure number="107" width="163.66">
      <direction placement="above">
        <direction-type>
          <metronome default-x="-30.12" parentheses="no" relative-y="20.00">
            <beat-unit>quarter</beat-unit>
            <per-minute>121.07992678462652</per-minute>
            </metronome>
          </direction-type>
        <staff>1</staff>
        <sound tempo="121.07992678462652" />
        </direction><note default-x="23.26" default-y="-100.00">
        <pitch>
          <step>G</step>
          <octave>5</octave>
          </pitch>
        <duration>24</duration>
        <tie type="stop" />
        <voice>1</voice>
        <type>half</type>
        <dot />
        <stem>down</stem>
        <notations>
          <tied type="stop" />
          </notations>
        </note>
      </measure>
    <measure number="108" width="195.83">
      <direction placement="above">
        <direction-type>
          <metronome default-x="-30.12" parentheses="no" relative-y="20.00">
            <beat-unit>quarter</beat-unit>
            <per-minute>121.07992678462652</per-minute>
            </metronome>
          </direction-type>
        <staff>1</staff>
        <sound tempo="121.07992678462652" />
        </direction><note default-x="18.42" default-y="-85.00">
        <pitch>
          <step>C</step>
          <octave>6</octave>
          </pitch>
        <duration>6</duration>
        <voice>1</voice>
        <type>eighth</type>
        <dot />
        <stem>down</stem>
        <beam number="1">begin</beam>
        <lyric default-x="6.58" default-y="-70.00" number="1" relative-y="-11.47">
          <syllabic>single</syllabic>
          <text>ni</text>
          </lyric>
        </note>
      <note default-x="61.59" default-y="-80.00">
        <pitch>
          <step>D</step>
          <octave>6</octave>
          </pitch>
        <duration>6</duration>
        <voice>1</voice>
        <type>eighth</type>
        <dot />
        <stem>down</stem>
        <beam number="1">continue</beam>
        <lyric default-x="6.58" default-y="-70.00" number="1" relative-y="-11.47">
          <syllabic>single</syllabic>
          <text>hai</text>
          </lyric>
        </note>
      <note default-x="107.89" default-y="-80.00">
        <pitch>
          <step>D</step>
          <octave>6</octave>
          </pitch>
        <duration>6</duration>
        <voice>1</voice>
        <type>eighth</type>
        <dot />
        <stem>down</stem>
        <beam number="1">continue</beam>
        <lyric default-x="6.58" default-y="-70.00" number="1" relative-y="-11.47">
          <syllabic>single</syllabic>
          <text>yuan</text>
          </lyric>
        </note>
      <note default-x="151.06" default-y="-90.00">
        <pitch>
          <step>B</step>
          <octave>5</octave>
          </pitch>
        <duration>6</duration>
        <voice>1</voice>
        <type>eighth</type>
        <dot />
        <stem>down</stem>
        <beam number="1">end</beam>
        <lyric default-x="6.58" default-y="-70.00" number="1" relative-y="-11.47">
          <syllabic>single</syllabic>
          <text>yi</text>
          </lyric>
        </note>
      </measure>
    <measure number="109" width="89.74">
      <direction placement="above">
        <direction-type>
          <metronome default-x="-30.12" parentheses="no" relative-y="20.00">
            <beat-unit>quarter</beat-unit>
            <per-minute>121.07992678462652</per-minute>
            </metronome>
          </direction-type>
        <staff>1</staff>
        <sound tempo="121.07992678462652" />
        </direction><note default-x="24.66" default-y="-85.00">
        <pitch>
          <step>C</step>
          <octave>6</octave>
          </pitch>
        <duration>24</duration>
        <voice>1</voice>
        <type>half</type>
        <dot />
        <stem>down</stem>
        <lyric default-x="6.94" default-y="-70.00" number="1" relative-y="-11.47">
          <syllabic>single</syllabic>
          <text>ma</text>
          </lyric>
        </note>
      </measure>
    <measure number="110" width="163.19">
      <direction placement="above">
        <direction-type>
          <metronome default-x="-30.12" parentheses="no" relative-y="20.00">
            <beat-unit>quarter</beat-unit>
            <per-minute>121.07992678462652</per-minute>
            </metronome>
          </direction-type>
        <staff>1</staff>
        <sound tempo="121.07992678462652" />
        </direction><note>
        <rest />
        <duration>3</duration>
        <voice>1</voice>
        <type>16th</type>
        <dot />
        </note>
      <note default-x="40.42" default-y="-90.00">
        <pitch>
          <step>B</step>
          <octave>5</octave>
          </pitch>
        <duration>3</duration>
        <voice>1</voice>
        <type>16th</type>
        <dot />
        <stem>down</stem>
        <beam number="1">begin</beam>
        <beam number="2">begin</beam>
        <lyric default-x="6.58" default-y="-70.00" number="1" relative-y="-11.47">
          <syllabic>single</syllabic>
          <text>&#21475;&#29748;&#32380;&#32396;</text>
          </lyric>
        </note>
      <note default-x="64.11" default-y="-95.00">
        <pitch>
          <step>A</step>
          <octave>5</octave>
          </pitch>
        <duration>3</duration>
        <voice>1</voice>
        <type>16th</type>
        <dot />
        <stem>down</stem>
        <beam number="1">continue</beam>
        <beam number="2">continue</beam>
        </note>
      <note default-x="87.81" default-y="-90.00">
        <pitch>
          <step>B</step>
          <octave>5</octave>
          </pitch>
        <duration>3</duration>
        <voice>1</voice>
        <type>16th</type>
        <dot />
        <stem>down</stem>
        <beam number="1">end</beam>
        <beam number="2">end</beam>
        </note>
      <note default-x="111.51" default-y="-115.00">
        <pitch>
          <step>D</step>
          <octave>5</octave>
          </pitch>
        <duration>12</duration>
        <tie type="start" />
        <voice>1</voice>
        <type>quarter</type>
        <dot />
        <stem>up</stem>
        <notations>
          <tied type="start" />
          </notations>
        </note>
      </measure>
    <measure number="111" width="129.20">
      <direction placement="above">
        <direction-type>
          <metronome default-x="-30.12" parentheses="no" relative-y="20.00">
            <beat-unit>quarter</beat-unit>
            <per-minute>121.07992678462652</per-minute>
            </metronome>
          </direction-type>
        <staff>1</staff>
        <sound tempo="121.07992678462652" />
        </direction><note default-x="13.80" default-y="-115.00">
        <pitch>
          <step>D</step>
          <octave>5</octave>
          </pitch>
        <duration>24</duration>
        <tie type="stop" />
        <voice>1</voice>
        <type>half</type>
        <dot />
        <stem>up</stem>
        <notations>
          <tied type="stop" />
          </notations>
        </note>
      </measure>
    <measure number="112" width="87.99">
      <direction placement="above">
        <direction-type>
          <metronome default-x="-30.12" parentheses="no" relative-y="20.00">
            <beat-unit>quarter</beat-unit>
            <per-minute>121.07992678462652</per-minute>
            </metronome>
          </direction-type>
        <staff>1</staff>
        <sound tempo="121.07992678462652" />
        </direction><note default-x="16.46" default-y="-95.00">
        <pitch>
          <step>A</step>
          <octave>5</octave>
          </pitch>
        <duration>24</duration>
        <voice>1</voice>
        <type>half</type>
        <dot />
        <stem>down</stem>
        </note>
      </measure>
    <measure number="113" width="101.61">
      <direction placement="above">
        <direction-type>
          <metronome default-x="-30.12" parentheses="no" relative-y="20.00">
            <beat-unit>quarter</beat-unit>
            <per-minute>121.07992678462652</per-minute>
            </metronome>
          </direction-type>
        <staff>1</staff>
        <sound tempo="121.07992678462652" />
        </direction><note default-x="16.82" default-y="-100.00">
        <pitch>
          <step>G</step>
          <octave>5</octave>
          </pitch>
        <duration>12</duration>
        <voice>1</voice>
        <type>quarter</type>
        <dot />
        <stem>down</stem>
        </note>
      <note default-x="47.84" default-y="-105.00">
        <pitch>
          <step>F</step>
          <alter>1</alter>
          <octave>5</octave>
          </pitch>
        <duration>12</duration>
        <voice>1</voice>
        <type>quarter</type>
        <dot />
        <stem>down</stem>
        </note>
      </measure>
    <measure number="114" width="119.39">
      <direction placement="above">
        <direction-type>
          <metronome default-x="-30.12" parentheses="no" relative-y="20.00">
            <beat-unit>quarter</beat-unit>
            <per-minute>121.07992678462652</per-minute>
            </metronome>
          </direction-type>
        <staff>1</staff>
        <sound tempo="121.07992678462652" />
        </direction><note default-x="16.82" default-y="-110.00">
        <pitch>
          <step>E</step>
          <octave>5</octave>
          </pitch>
        <duration>4</duration>
        <voice>1</voice>
        <type>eighth</type>
        <stem>up</stem>
        <beam number="1">begin</beam>
        </note>
      <note default-x="35.98" default-y="-115.00">
        <pitch>
          <step>D</step>
          <octave>5</octave>
          </pitch>
        <duration>4</duration>
        <voice>1</voice>
        <type>eighth</type>
        <stem>up</stem>
        <beam number="1">end</beam>
        </note>
      <note default-x="55.14" default-y="-110.00">
        <pitch>
          <step>E</step>
          <octave>5</octave>
          </pitch>
        <duration>4</duration>
        <voice>1</voice>
        <type>eighth</type>
        <stem>up</stem>
        </note>
      <note default-x="80.41" default-y="-125.00">
        <pitch>
          <step>B</step>
          <octave>4</octave>
          </pitch>
        <duration>12</duration>
        <tie type="start" />
        <voice>1</voice>
        <type>quarter</type>
        <dot />
        <stem>up</stem>
        <notations>
          <tied type="start" />
          </notations>
        </note>
      </measure>
    <measure number="115" width="114.42">
      <direction placement="above">
        <direction-type>
          <metronome default-x="-30.12" parentheses="no" relative-y="20.00">
            <beat-unit>quarter</beat-unit>
            <per-minute>121.07992678462652</per-minute>
            </metronome>
          </direction-type>
        <staff>1</staff>
        <sound tempo="121.07992678462652" />
        </direction><note default-x="14.16" default-y="-125.00">
        <pitch>
          <step>B</step>
          <octave>4</octave>
          </pitch>
        <duration>12</duration>
        <tie type="stop" />
        <voice>1</voice>
        <type>quarter</type>
        <dot />
        <stem>up</stem>
        <notations>
          <tied type="stop" />
          </notations>
        </note>
      <note default-x="48.69" default-y="-130.00">
        <pitch>
          <step>A</step>
          <octave>4</octave>
          </pitch>
        <duration>12</duration>
        <voice>1</voice>
        <type>quarter</type>
        <dot />
        <stem>up</stem>
        </note>
      </measure>
    <measure number="116" width="81.54">
      <direction placement="above">
        <direction-type>
          <metronome default-x="-30.12" parentheses="no" relative-y="20.00">
            <beat-unit>quarter</beat-unit>
            <per-minute>121.07992678462652</per-minute>
            </metronome>
          </direction-type>
        <staff>1</staff>
        <sound tempo="121.07992678462652" />
        </direction><note default-x="16.46" default-y="-130.00">
        <pitch>
          <step>A</step>
          <octave>4</octave>
          </pitch>
        <duration>24</duration>
        <voice>1</voice>
        <type>half</type>
        <dot />
        <stem>up</stem>
        </note>
      </measure>
    <measure number="117" width="103.94">
      <direction placement="above">
        <direction-type>
          <metronome default-x="-30.12" parentheses="no" relative-y="20.00">
            <beat-unit>quarter</beat-unit>
            <per-minute>121.07992678462652</per-minute>
            </metronome>
          </direction-type>
        <staff>1</staff>
        <sound tempo="121.07992678462652" />
        </direction><note default-x="38.86" default-y="-115.00">
        <pitch>
          <step>D</step>
          <octave>5</octave>
          </pitch>
        <duration>24</duration>
        <voice>1</voice>
        <type>half</type>
        <dot />
        <stem>up</stem>
        <lyric default-x="6.22" default-y="-70.00" number="1" relative-y="-11.47">
          <syllabic>single</syllabic>
          <text>&#21475;&#29748;&#27490;</text>
          </lyric>
        </note>
      </measure>
    <measure number="118" width="125.74">
      <direction placement="above">
        <direction-type>
          <metronome default-x="-30.12" parentheses="no" relative-y="20.00">
            <beat-unit>quarter</beat-unit>
            <per-minute>121.07992678462652</per-minute>
            </metronome>
          </direction-type>
        <staff>1</staff>
        <sound tempo="121.07992678462652" />
        </direction><note>
        <rest />
        <duration>24</duration>
        <voice>1</voice>
        </note>
      </measure>
    <measure number="119" width="84.23">
      <direction placement="above">
        <direction-type>
          <metronome default-x="-30.12" parentheses="no" relative-y="20.00">
            <beat-unit>quarter</beat-unit>
            <per-minute>121.07992678462652</per-minute>
            </metronome>
          </direction-type>
        <staff>1</staff>
        <sound tempo="121.07992678462652" />
        </direction><note>
        <rest />
        <duration>24</duration>
        <voice>1</voice>
        </note>
      </measure>
    <measure number="120" width="92.39">
      <direction placement="above">
        <direction-type>
          <metronome default-x="-30.12" parentheses="no" relative-y="20.00">
            <beat-unit>quarter</beat-unit>
            <per-minute>121.07992678462652</per-minute>
            </metronome>
          </direction-type>
        <staff>1</staff>
        <sound tempo="121.07992678462652" />
        </direction><note>
        <rest />
        <duration>24</duration>
        <voice>1</voice>
        </note>
      </measure>
    <measure number="121" width="95.32">
      <direction placement="above">
        <direction-type>
          <metronome default-x="-30.12" parentheses="no" relative-y="20.00">
            <beat-unit>quarter</beat-unit>
            <per-minute>121.07992678462652</per-minute>
            </metronome>
          </direction-type>
        <staff>1</staff>
        <sound tempo="121.07992678462652" />
        </direction><note>
        <rest />
        <duration>24</duration>
        <voice>1</voice>
        </note>
      </measure>
    <measure number="122" width="134.83">
      <direction placement="above">
        <direction-type>
          <metronome default-x="-30.12" parentheses="no" relative-y="20.00">
            <beat-unit>quarter</beat-unit>
            <per-minute>121.07992678462652</per-minute>
            </metronome>
          </direction-type>
        <staff>1</staff>
        <sound tempo="121.07992678462652" />
        </direction><note>
        <rest />
        <duration>24</duration>
        <voice>1</voice>
        </note>
      </measure>
    <measure number="123" width="78.89">
      <direction placement="above">
        <direction-type>
          <metronome default-x="-30.12" parentheses="no" relative-y="20.00">
            <beat-unit>quarter</beat-unit>
            <per-minute>121.07992678462652</per-minute>
            </metronome>
          </direction-type>
        <staff>1</staff>
        <sound tempo="121.07992678462652" />
        </direction><note>
        <rest />
        <duration>24</duration>
        <voice>1</voice>
        </note>
      </measure>
    <measure number="124" width="101.32">
      <direction placement="above">
        <direction-type>
          <metronome default-x="-30.12" parentheses="no" relative-y="20.00">
            <beat-unit>quarter</beat-unit>
            <per-minute>121.07992678462652</per-minute>
            </metronome>
          </direction-type>
        <staff>1</staff>
        <sound tempo="121.07992678462652" />
        </direction><note>
        <rest />
        <duration>24</duration>
        <voice>1</voice>
        </note>
      </measure>
    <measure number="125" width="107.51">
      <direction placement="above">
        <direction-type>
          <metronome default-x="-30.12" parentheses="no" relative-y="20.00">
            <beat-unit>quarter</beat-unit>
            <per-minute>121.07992678462652</per-minute>
            </metronome>
          </direction-type>
        <staff>1</staff>
        <sound tempo="121.07992678462652" />
        </direction><note>
        <rest />
        <duration>24</duration>
        <voice>1</voice>
        </note>
      </measure>
    <measure number="126" width="89.74">
      <direction placement="above">
        <direction-type>
          <metronome default-x="-30.12" parentheses="no" relative-y="20.00">
            <beat-unit>quarter</beat-unit>
            <per-minute>121.07992678462652</per-minute>
            </metronome>
          </direction-type>
        <staff>1</staff>
        <sound tempo="121.07992678462652" />
        </direction><note>
        <rest />
        <duration>24</duration>
        <voice>1</voice>
        </note>
      </measure>
    <measure number="127" width="128.01">
      <direction placement="above">
        <direction-type>
          <metronome default-x="-30.12" parentheses="no" relative-y="20.00">
            <beat-unit>quarter</beat-unit>
            <per-minute>121.07992678462652</per-minute>
            </metronome>
          </direction-type>
        <staff>1</staff>
        <sound tempo="121.07992678462652" />
        </direction><note>
        <rest />
        <duration>24</duration>
        <voice>1</voice>
        </note>
      </measure>
    <measure number="128" width="84.45">
      <direction placement="above">
        <direction-type>
          <metronome default-x="-30.12" parentheses="no" relative-y="20.00">
            <beat-unit>quarter</beat-unit>
            <per-minute>112.41909183477352</per-minute>
            </metronome>
          </direction-type>
        <staff>1</staff>
        <sound tempo="112.41909183477352" />
        </direction><note>
        <rest />
        <duration>24</duration>
        <voice>1</voice>
        </note>
      <barline location="right">
        <bar-style>light-heavy</bar-style>
        </barline>
      </measure>
    </part></score-partwise>